<svg xmlns="http://www.w3.org/2000/svg" viewBox="0 0 1200 800" width="1200" height="800"><path fill="#FFF" d="M0 0h1200v800H0z"/><g transform="translate(483.0 346.0) rotate(0.0 117.0 54.5) scale(1.0010652360845516 1.006565763835662)"><svg width="233.751" height="108.289" viewBox="0 0 233.751 108.289"><clipPath id="d"><path d="m-60.576-449.853 227.131-36.392 158.609 304.173-225.033 70.957z"/></clipPath><linearGradient id="a" gradientUnits="userSpaceOnUse" x1="222.625" x2="142.799" y1="23.407" y2="28.299"><stop offset=".033" stop-color="#7A4397" stop-opacity=".39"/><stop offset=".905" stop-color="#4F0377" stop-opacity=".67"/></linearGradient><linearGradient xmlns:xlink="http://www.w3.org/1999/xlink" id="e" x1="229.903" x2="143.229" xlink:href="#a" y1="56.866" y2="69.779"/><linearGradient xmlns:xlink="http://www.w3.org/1999/xlink" id="f" x1="62.673" x2="33.912" xlink:href="#a" y1="38.457" y2="106.348"/><linearGradient xmlns:xlink="http://www.w3.org/1999/xlink" id="g" x1="3.025" x2="27.677" xlink:href="#a" y1="66.928" y2="75.145"/><linearGradient id="h" gradientUnits="userSpaceOnUse" x1="69.207" x2="56.881" y1="30.779" y2="61.105"><stop offset=".111" stop-color="#7A4397" stop-opacity=".39"/><stop offset=".905" stop-color="#4F0377" stop-opacity=".67"/></linearGradient><linearGradient xmlns:xlink="http://www.w3.org/1999/xlink" id="i" x1="79.1" x2="20.209" xlink:href="#a" y1="68.649" y2="110.323"/><linearGradient id="b" gradientUnits="userSpaceOnUse" x1="67.186" x2="11.23" y1="34.832" y2="92.745"><stop offset="0" stop-color="#D486FC" stop-opacity=".32"/><stop offset=".889" stop-color="#D2273A"/></linearGradient><linearGradient id="j" gradientUnits="userSpaceOnUse" x1="221.67" x2="139.887" y1="35.925" y2="14.012"><stop offset=".06" stop-color="#7A4397" stop-opacity=".39"/><stop offset=".905" stop-color="#4F0377" stop-opacity=".67"/></linearGradient><linearGradient xmlns:xlink="http://www.w3.org/1999/xlink" id="k" x1="154.977" x2="231.673" xlink:href="#b" y1="7.09" y2="26.851"/><linearGradient xmlns:xlink="http://www.w3.org/1999/xlink" id="l" x1="230.828" x2="138.285" xlink:href="#a" y1="72.486" y2="50.573"/><linearGradient id="m" gradientUnits="userSpaceOnUse" x1="159.58" x2="239.798" y1="44.546" y2="65.872"><stop offset="0" stop-color="#D486FC" stop-opacity=".32"/><stop offset=".864" stop-color="#D2273A"/></linearGradient><linearGradient id="c" gradientUnits="userSpaceOnUse" x1="153.479" x2="233.751" y1="53.594" y2="53.594"><stop offset=".01" stop-color="#ff296d" stop-opacity="0"/><stop offset=".152" stop-color="#D2273A"/><stop offset=".423" stop-color="#F62940" stop-opacity=".53"/><stop offset=".835" stop-color="#D2273A"/><stop offset="1" stop-color="#ff296d" stop-opacity="0"/></linearGradient><linearGradient id="n" gradientUnits="userSpaceOnUse" x1="20.973" x2="55.799" y1="29.961" y2="85.917"><stop offset=".01" stop-color="#ff296d" stop-opacity="0"/><stop offset=".152" stop-color="#D2273A"/><stop offset=".423" stop-color="#F62940" stop-opacity=".53"/><stop offset=".672" stop-color="#D2273A"/><stop offset="1" stop-color="#ff296d" stop-opacity="0"/></linearGradient><linearGradient xmlns:xlink="http://www.w3.org/1999/xlink" id="o" x1="149.814" x2="230.087" xlink:href="#c" y1="16.101" y2="16.101"/><g clip-path="url(#d)" fill="none"><path d="M250.955 13.03c-3.499-1.156-6.989-2.614-10.47-4.316a126.797 126.797 0 0 1-10.472-5.723c-6.959-4.235-13.86-9.253-20.729-14.573-13.733-10.647-27.359-22.48-40.923-31.892-.322-.684-.634-1.379-.968-2.05l2.018.639c.225-5.771-5.236-18.28-15.874-25.601-2.456-1.705-5.16-3.139-8.147-4.143l-7.467 1.685c-.065-3.093-.414-6.286-.435-9.129-.047-2.813.252-5.297 1.53-7.03.818-1.109 2.042-1.912 3.825-2.298l7.887-2.235 1.414 1.454-6.687 2.303c9.968 3.352 13.473.289 16.744-2.427l-4.819 4.815c7.15 2.108 9.889.076 13.339-1.163l3.443 3.74 18.201 9.074c-5.138-.928-10.253-1.915-15.459-2.732l6.505 8.017c7.573 4.063 16.067 8.548 24.376 12.678 8.298 4.15 16.448 7.872 23.436 10.225-16.41-4.823-39.464-15.705-49.932-11.644l6.856 5.882-6.008-1.964c7.524 4.112 13.634 6.357 19.718 8.639 6.103 2.253 12.059 4.725 19.458 9.012l-8.101-2.503c-2.713-.816-5.461-1.579-8.19-2.371 9.041 6.258 17.26 8.605 25.016 13.258-1.727-.565-3.663-1.36-5.734-2.308-2.088-.923-4.311-2.003-6.594-3.165-4.567-2.323-9.379-4.974-13.861-7.347-8.962-4.746-16.601-8.382-18.3-6.079-.051.069-.103.139-.146.216-.088.102-.168.211-.247.318-6.27 8.479 23.702 30.809 48.621 43.597l-5.282-1.276c2.513 6.701 15.853 12.199 22.459 18.418" fill="#fdc4ff" opacity=".64"/></g><path d="m144.861 12.032 73.975 8.89 1.832 18.746-73.975-8.89z" fill="url(#a)"/><path d="m150.357 68.271-1.832-18.747 73.975 8.891 1.832 18.746z" fill="url(#e)"/><path d="M72.343 36.993 62.1 62.918l24.961 4.444-7.683 19.446-24.961-4.444-10.243 25.925-18.723-3.333L35.694 79.03l-24.961-4.444 7.683-19.445 24.961 4.444L53.62 33.659z" fill="url(#f)"/><path d="m27.72 70.07 7.974 8.96-24.961-4.444-7.974-8.96z" fill="url(#g)"/><path d="m64.368 28.033 7.975 8.96L62.1 62.918l-7.975-8.96z" fill="url(#h)"/><path d="m79.086 58.402-7.683 19.446-24.961-4.444-10.243 25.925-18.722-3.333 7.974 8.96 18.723 3.333 10.243-25.925 24.961 4.444 7.683-19.446z" fill="url(#i)"/><path d="M64.368 28.033 54.125 53.958l24.961 4.444-7.683 19.446-24.961-4.444-10.243 25.925-18.723-3.333L27.72 70.07 2.759 65.626l7.683-19.445 24.961 4.444 10.243-25.926z" fill="url(#b)"/><path d="m153.954 21.029-1.832-18.747-7.186 9.834 1.832 18.747 73.975 8.89 7.187-9.834z" fill="url(#j)"/><path d="m152.047 2.283 73.976 8.89 1.832 18.746-73.976-8.89z" fill="url(#k)"/><path d="m157.543 58.522-1.832-18.746-7.187 9.834 1.832 18.746 73.976 8.89 7.187-9.834z" fill="url(#l)"/><path d="m157.543 58.522-1.832-18.746 73.976 8.89 1.832 18.746z" fill="url(#m)"/><path d="m233.751 69.695-78.042-9.379-2.23-22.823 78.042 9.379zm-74.374-12.967 69.909 8.401-1.434-14.67-69.909-8.401z" fill="url(#c)" opacity=".6"/><path d="m37.458 101.585-22.74-4.049L24.961 71.61 0 67.167l9.183-23.242 24.961 4.444 10.243-25.925 22.74 4.049-10.243 25.925 24.961 4.444-9.183 23.242-24.961-4.444-10.243 25.926zm-17.223-7.129 14.705 2.618 10.243-25.926 24.961 4.444 6.183-15.65-24.961-4.444 10.243-25.925-14.705-2.618L36.661 52.88 11.7 48.436l-6.183 15.65 24.961 4.444z" fill="url(#n)" opacity=".6"/><path d="m230.087 32.202-78.042-9.379L149.815 0l78.042 9.379zm-74.374-12.967 69.909 8.401-1.434-14.67-69.909-8.401z" fill="url(#o)" opacity=".6"/></svg></g></svg>